<svg width="450" height="200" viewBox="0 0 450 200" fill="none" xmlns="http://www.w3.org/2000/svg">
<path fill-rule="evenodd" clip-rule="evenodd" d="M350.327 27.6364C350.327 27.0841 349.88 26.6364 349.327 26.6364C348.775 26.6364 348.327 27.0841 348.327 27.6364L348.327 56H350.327L350.327 27.6364ZM350.327 146H348.327L348.327 173.091C348.327 173.643 348.775 174.091 349.327 174.091C349.88 174.091 350.327 173.643 350.327 173.091L350.327 146Z" fill="black"/>
<path fill-rule="evenodd" clip-rule="evenodd" d="M343.055 27.6364C343.055 27.0841 342.607 26.6364 342.055 26.6364C341.502 26.6364 341.055 27.0841 341.055 27.6364L341.055 56H343.055L343.055 27.6364ZM343.054 146H341.054L341.054 173.091C341.054 173.643 341.502 174.091 342.054 174.091C342.607 174.091 343.054 173.643 343.054 173.091L343.054 146Z" fill="black"/>
<path fill-rule="evenodd" clip-rule="evenodd" d="M99.4182 27.6364C99.4182 27.0841 98.9705 26.6364 98.4182 26.6364C97.8659 26.6364 97.4182 27.0841 97.4182 27.6364L97.4182 56H99.4182L99.4182 27.6364ZM99.4182 146H97.4182L97.4182 173.091C97.4182 173.643 97.8659 174.091 98.4182 174.091C98.9705 174.091 99.4182 173.643 99.4182 173.091L99.4182 146Z" fill="black"/>
<path fill-rule="evenodd" clip-rule="evenodd" d="M106.691 27.6364C106.691 27.0841 106.243 26.6364 105.691 26.6364C105.139 26.6364 104.691 27.0841 104.691 27.6364L104.691 56H106.691L106.691 27.6364ZM106.691 146H104.691L104.691 173.091C104.691 173.643 105.139 174.091 105.691 174.091C106.243 174.091 106.691 173.643 106.691 173.091L106.691 146Z" fill="black"/>
<path fill-rule="evenodd" clip-rule="evenodd" d="M300.555 146C285.021 171.922 256.655 189.273 224.236 189.273C191.818 189.273 163.451 171.922 147.918 146H145.595C161.339 173.072 190.662 191.273 224.236 191.273C257.81 191.273 287.134 173.072 302.878 146H300.555ZM147.169 56C162.529 29.3749 191.29 11.4545 224.236 11.4545C257.183 11.4545 285.944 29.3749 301.304 56H303.604C288.047 28.2267 258.334 9.45454 224.236 9.45454C190.139 9.45454 160.426 28.2267 144.868 56H147.169Z" fill="black"/>
<path fill-rule="evenodd" clip-rule="evenodd" d="M310.428 146C293.951 176.939 261.372 198 223.873 198C186.374 198 153.794 176.939 137.317 146H135.057C151.708 178.082 185.231 200 223.873 200C262.515 200 296.038 178.082 312.688 146H310.428ZM136.282 56C152.402 23.9725 185.571 2 223.873 2C262.174 2 295.344 23.9725 311.464 56H313.698C297.42 22.8323 263.313 0 223.873 0C184.433 0 150.326 22.8323 134.048 56H136.282Z" fill="black"/>
<path d="M14.1854 129.017H0V71.9833H10.836C18.5855 71.9833 24.4304 73.3272 28.3707 76.015C32.3768 78.7028 34.3798 82.3739 34.3798 87.0283C34.3798 92.6006 31.9171 96.6322 26.9916 99.1233C30.6036 100.369 33.2962 102.237 35.0694 104.728C36.8426 107.154 37.7292 109.973 37.7292 113.185C37.7292 117.905 35.759 121.74 31.8186 124.69C27.9439 127.574 22.0661 129.017 14.1854 129.017ZM14.1854 126.067C19.9646 126.067 24.8244 125.018 28.7648 122.92C32.7708 120.822 34.7739 117.577 34.7739 113.185C34.7739 111.153 34.0186 108.957 32.5081 106.597C30.9977 104.171 28.6663 102.401 25.514 101.287L20.3915 99.5167L25.1199 97.0583C26.7618 96.2061 28.2066 94.9278 29.4544 93.2233C30.7678 91.4533 31.4245 89.3883 31.4245 87.0283C31.4245 82.8983 29.4544 79.85 25.514 77.8833C21.5736 75.9167 16.6809 74.9333 10.836 74.9333H2.95529V126.067H14.1854Z" fill="black"/>
<path d="M91.0359 123.215C87.4239 127.738 81.5133 130 73.3042 130C65.0951 130 59.2173 127.673 55.671 123.018C52.1246 118.364 50.3515 110.858 50.3515 100.5C50.3515 90.1422 52.1246 82.6361 55.671 77.9817C59.2173 73.3272 65.0951 71 73.3042 71C82.8268 71 89.2956 74.1139 92.7106 80.3417L68.5757 100.5H63.9458L88.8687 79.7517C85.9791 75.8839 80.7909 73.95 73.3042 73.95C70.0205 73.95 67.2623 74.3106 65.0294 75.0317C62.7965 75.6872 60.7278 76.9656 58.8233 78.8667C56.9844 80.7022 55.6053 83.4228 54.6859 87.0283C53.7665 90.5683 53.3067 95.0589 53.3067 100.5C53.3067 105.941 53.7665 110.464 54.6859 114.07C55.6053 117.61 56.9844 120.331 58.8233 122.232C60.7278 124.067 62.7965 125.346 65.0294 126.067C67.2623 126.722 70.0205 127.05 73.3042 127.05C80.7909 127.05 85.9791 125.116 88.8687 121.248L91.0359 123.215Z" fill="black"/>
<path d="M130.819 100.402L144.216 129.017H140.966L127.174 99.5167C127.306 99.4511 127.864 99.1889 128.849 98.73C129.9 98.2056 130.622 97.845 131.016 97.6483C131.41 97.3861 132.067 96.96 132.986 96.37C133.906 95.78 134.595 95.2228 135.055 94.6983C135.515 94.1083 136.007 93.4528 136.533 92.7317C137.124 91.945 137.551 91.0928 137.813 90.175C138.076 89.1917 138.207 88.1428 138.207 87.0283C138.207 82.8983 136.237 79.85 132.297 77.8833C128.356 75.9167 123.464 74.9333 117.619 74.9333H109.738V129.017H106.783V71.9833H117.619C125.368 71.9833 131.213 73.3272 135.154 76.015C139.16 78.7028 141.163 82.3739 141.163 87.0283C141.163 90.0439 140.145 92.7317 138.109 95.0917C136.073 97.3861 133.643 99.1561 130.819 100.402Z" fill="black"/>
<path d="M194.518 71.9833V74.9333H173.831V129.017H170.876V74.9333H150.189V71.9833H194.518Z" fill="black"/>
<path d="M241.333 129.017H238.378V100.5H208.825V129.017H205.87V71.9833H208.825V97.55H238.378V71.9833H241.333V129.017Z" fill="black"/>
<path d="M265.252 126.067H297.366L277.171 78.5717L255.696 129.017H252.544L277.171 71L301.799 129.017H265.252V126.067Z" fill="black"/>
<path d="M327.222 129.017H313.037V71.9833H323.873C331.623 71.9833 337.467 73.3272 341.408 76.015C345.414 78.7028 347.417 82.3739 347.417 87.0283C347.417 92.6006 344.954 96.6322 340.029 99.1233C343.641 100.369 346.333 102.237 348.107 104.728C349.88 107.154 350.766 109.973 350.766 113.185C350.766 117.905 348.796 121.74 344.856 124.69C340.981 127.574 335.103 129.017 327.222 129.017ZM327.222 126.067C333.002 126.067 337.862 125.018 341.802 122.92C345.808 120.822 347.811 117.577 347.811 113.185C347.811 111.153 347.056 108.957 345.545 106.597C344.035 104.171 341.703 102.401 338.551 101.287L333.429 99.5167L338.157 97.0583C339.799 96.2061 341.244 94.9278 342.491 93.2233C343.805 91.4533 344.462 89.3883 344.462 87.0283C344.462 82.8983 342.491 79.85 338.551 77.8833C334.611 75.9167 329.718 74.9333 323.873 74.9333H315.992V126.067H327.222Z" fill="black"/>
<path d="M398.753 126.067V129.017H365.851V71.9833H368.807V126.067H398.753Z" fill="black"/>
<path d="M448.325 123.215C444.713 127.738 438.803 130 430.594 130C422.384 130 416.507 127.673 412.96 123.018C409.414 118.364 407.641 110.858 407.641 100.5C407.641 90.1422 409.414 82.6361 412.96 77.9817C416.507 73.3272 422.384 71 430.594 71C440.116 71 446.585 74.1139 450 80.3417L425.865 100.5H421.235L446.158 79.7517C443.269 75.8839 438.08 73.95 430.594 73.95C427.31 73.95 424.552 74.3106 422.319 75.0317C420.086 75.6872 418.017 76.9656 416.113 78.8667C414.274 80.7022 412.895 83.4228 411.975 87.0283C411.056 90.5683 410.596 95.0589 410.596 100.5C410.596 105.941 411.056 110.464 411.975 114.07C412.895 117.61 414.274 120.331 416.113 122.232C418.017 124.067 420.086 125.346 422.319 126.067C424.552 126.722 427.31 127.05 430.594 127.05C438.08 127.05 443.269 125.116 446.158 121.248L448.325 123.215Z" fill="black"/>
</svg>
